<?xml version="1.0" encoding="utf-8"?>
<svg xmlns="http://www.w3.org/2000/svg" viewBox="990 130 2855 475">
  <defs>
    <linearGradient id="textGrad" gradientUnits="userSpaceOnUse" x1="990" y1="130" x2="3845" y2="605">
      <stop offset="0%"   stop-color="#ffffff"/>
      <stop offset="60%"  stop-color="#93b8f0"/>
      <stop offset="100%" stop-color="#6b9de8"/>
    </linearGradient>
  </defs>
  <g fill="url(#textGrad)">
    <path d="M1000.23,595.1V252.55h81.9l5.85,40.95c8.66-13,18.41-22.85,29.25-29.57,10.83-6.71,22.1-11.26,33.8-13.65,11.7-2.38,23.61-3.57,35.75-3.57,5.63,0,10.83.11,15.6.32,4.76.22,8.23.33,10.4.33v87.75h-21.45c-20.37,0-38.14,3.47-53.3,10.4-15.17,6.94-26.76,17.77-34.77,32.5-8.02,14.74-12.02,33.59-12.02,56.55v160.55h-91Z"/>
    <path d="M1405.83,599.65c-35.97,0-66.52-7.15-91.65-21.45-25.14-14.3-44.42-34.55-57.85-60.77-13.44-26.21-20.15-56.88-20.15-91.98s6.93-66.62,20.8-93.27c13.86-26.65,33.48-47.55,58.83-62.73,25.35-15.16,55.35-22.75,90.02-22.75,26,0,48.85,4.34,68.58,13,19.71,8.67,36.4,20.8,50.05,36.4s23.83,33.7,30.55,54.27c6.71,20.59,9.85,42.8,9.42,66.63,0,6.07-.22,11.92-.65,17.55-.44,5.64-1.3,11.27-2.6,16.9h-234.65c1.3,13,4.98,24.92,11.05,35.75,6.06,10.84,14.62,19.4,25.68,25.68,11.05,6.29,24.8,9.42,41.27,9.42,10.83,0,20.8-1.19,29.9-3.58,9.1-2.38,16.9-6.17,23.4-11.38s11.05-11.26,13.65-18.2h89.7c-5.64,25.57-16.15,46.59-31.52,63.05-15.39,16.47-33.91,28.5-55.58,36.08-21.67,7.58-44.42,11.38-68.25,11.38ZM1328.48,387.75h148.85c-.44-11.7-3.36-22.64-8.77-32.83-5.42-10.18-13.44-18.41-24.05-24.7-10.62-6.28-24.16-9.42-40.62-9.42s-30.23,3.25-41.28,9.75c-11.05,6.5-19.29,14.85-24.7,25.02-5.42,10.19-8.56,20.91-9.43,32.18Z"/>
    <path d="M1635.93,595.1V134.9h173.55c48.1,0,89.15,9.1,123.18,27.3,34.01,18.2,60.01,44.42,78,78.65,17.98,34.24,26.97,76.05,26.97,125.45s-8.78,89.81-26.33,123.83c-17.55,34.02-43.22,60.02-77.02,78-33.8,17.99-75.19,26.97-124.15,26.97h-174.2ZM1728.88,509.3h80.6c32.06,0,57.85-6.06,77.35-18.2,19.5-12.13,33.8-29.03,42.9-50.7,9.1-21.66,13.65-46.58,13.65-74.75s-4.45-51.89-13.33-73.77c-8.89-21.88-23.19-39.1-42.9-51.67-19.72-12.56-46.26-18.85-79.62-18.85h-78.65v287.95Z"/>
    <path d="M2257.33,599.65c-34.67,0-65-7.04-91-21.12-26-14.08-46.15-34.23-60.45-60.45-14.3-26.21-21.45-57.3-21.45-93.27s7.25-68.58,21.78-95.23c14.51-26.65,34.77-47.12,60.77-61.43,26-14.3,55.9-21.45,89.7-21.45s64.78,7.37,90.35,22.1c25.56,14.74,45.5,35.32,59.8,61.75,14.3,26.44,21.45,58.07,21.45,94.9s-7.05,67.06-21.12,93.28c-14.09,26.22-33.8,46.26-59.15,60.12-25.35,13.87-55.58,20.8-90.67,20.8ZM2256.03,516.45c19.93,0,35.96-4.33,48.1-13,12.13-8.66,20.9-20.04,26.33-34.12,5.41-14.08,8.12-28.92,8.12-44.52s-2.71-30.55-8.12-44.85c-5.42-14.3-14.09-26.1-26-35.42-11.92-9.31-28.06-13.97-48.43-13.97s-35.32,4.66-47.45,13.97c-12.14,9.32-20.91,21.12-26.33,35.42-5.42,14.3-8.12,29.25-8.12,44.85s2.7,30.99,8.12,44.85c5.41,13.87,14.19,25.14,26.33,33.8,12.13,8.67,27.95,13,47.45,13Z"/>
    <path d="M2486.78,595.1V252.55h85.15l4.55,39.65c9.53-11.7,20.47-20.9,32.83-27.62,12.35-6.71,24.91-11.38,37.7-13.98,12.78-2.6,24.38-3.9,34.78-3.9,32.93,0,58.6,7.15,77.03,21.45,18.41,14.3,31.63,33.48,39.65,57.53,8.01,24.05,12.03,50.81,12.03,80.27v189.15h-91v-177.45c0-10.4-.87-20.8-2.6-31.2-1.74-10.4-4.88-19.93-9.42-28.6-4.55-8.66-10.95-15.6-19.17-20.8-8.24-5.2-19.07-7.8-32.5-7.8-17.34,0-31.85,4.34-43.55,13-11.7,8.67-20.37,20.37-26,35.1-5.64,14.74-8.45,30.99-8.45,48.75v169h-91Z"/>
    <path d="M2988.57,599.65c-15.6,0-30.66-2.06-45.17-6.17-14.52-4.11-27.41-10.5-38.67-19.17-11.27-8.66-20.15-19.5-26.65-32.5s-9.75-28.16-9.75-45.5c0-23.4,4.76-42.14,14.3-56.23,9.53-14.08,22.31-24.8,38.35-32.17,16.03-7.36,34.55-12.35,55.58-14.95,21.01-2.6,42.79-3.9,65.32-3.9h49.4c0-12.56-2.28-23.73-6.83-33.48-4.55-9.75-11.38-17.33-20.47-22.75-9.1-5.41-20.8-8.12-35.1-8.12-9.1,0-17.88,1.2-26.32,3.57-8.45,2.39-15.5,5.75-21.12,10.08-5.64,4.34-9.32,9.97-11.05,16.9h-92.3c2.6-19.06,8.66-35.42,18.2-49.07,9.53-13.65,21.45-24.8,35.75-33.48,14.3-8.66,30-15.05,47.12-19.18,17.11-4.11,34.78-6.17,52.97-6.17,49.83,0,86.66,14.2,110.5,42.58,23.83,28.39,35.75,68.57,35.75,120.58v184.6h-81.9l-1.3-44.2c-10.84,15.17-23.08,26.22-36.73,33.15-13.65,6.94-26.76,11.26-39.33,13-12.57,1.73-22.75,2.6-30.55,2.6ZM3009.37,527.5c15.16,0,29.03-3.03,41.6-9.1,12.56-6.06,22.53-14.3,29.9-24.7,7.36-10.4,11.05-22.1,11.05-35.1v-8.45h-62.4c-9.1,0-17.88.44-26.33,1.3-8.45.87-16.04,2.5-22.75,4.88-6.72,2.39-12.02,6.18-15.92,11.38-3.9,5.2-5.85,12.14-5.85,20.8s2.27,15.92,6.82,21.77c4.55,5.85,10.73,10.19,18.53,13,7.8,2.82,16.25,4.23,25.35,4.23Z"/>
    <path d="M3388.97,599.65c-38.57,0-67.06-10.83-85.47-32.5-18.42-21.66-27.62-51.35-27.62-89.05v-144.3h-51.35v-81.25h51.35v-92.3h91v92.3h104v81.25h-104v125.45c0,11.27,1.4,21.02,4.22,29.25,2.81,8.24,7.58,14.62,14.3,19.17,6.71,4.55,15.92,6.83,27.62,6.83,10.4,0,19.17-1.62,26.33-4.88s13.1-6.83,17.88-10.73l28.6,70.2c-9.1,7.37-19.17,13.33-30.22,17.88s-22.21,7.8-33.47,9.75c-11.27,1.95-22.32,2.92-33.15,2.92Z"/>
    <path d="M3680.17,599.65c-35.97,0-66.52-7.15-91.65-21.45-25.14-14.3-44.42-34.55-57.85-60.77-13.44-26.21-20.15-56.88-20.15-91.98s6.93-66.62,20.8-93.27c13.86-26.65,33.48-47.55,58.83-62.73,25.35-15.16,55.35-22.75,90.03-22.75,26,0,48.85,4.34,68.57,13,19.71,8.67,36.4,20.8,50.05,36.4,13.65,15.6,23.83,33.7,30.55,54.27,6.71,20.59,9.85,42.8,9.42,66.63,0,6.07-.22,11.92-.65,17.55-.44,5.64-1.3,11.27-2.6,16.9h-234.65c1.3,13,4.98,24.92,11.05,35.75,6.06,10.84,14.62,19.4,25.67,25.68,11.05,6.29,24.8,9.42,41.27,9.42,10.83,0,20.8-1.19,29.9-3.58,9.1-2.38,16.9-6.17,23.4-11.38s11.05-11.26,13.65-18.2h89.7c-5.64,25.57-16.15,46.59-31.53,63.05-15.39,16.47-33.91,28.5-55.57,36.08-21.67,7.58-44.42,11.38-68.25,11.38ZM3602.82,387.75h148.85c-.44-11.7-3.36-22.64-8.78-32.83-5.42-10.18-13.44-18.41-24.05-24.7-10.62-6.28-24.16-9.42-40.62-9.42s-30.23,3.25-41.28,9.75-19.29,14.85-24.7,25.02c-5.42,10.19-8.56,20.91-9.42,32.18Z"/>
  </g>
</svg>
