<?xml version="1.0" encoding="UTF-8"?>
<svg id="_Слой_1" data-name="Слой 1" xmlns="http://www.w3.org/2000/svg" viewBox="0 0 1024 1024">
  <defs>
    <style>
      .cls-1 {
        fill: #060f1e;
      }
      .cls-2 {
        fill: #ffffff;
      }
    </style>
  </defs>
  <rect class="cls-2" x="101.17" y="101.17" width="821.66" height="821.66" rx="50" ry="50"/>
  <path class="cls-2" d="M1024,62.76v133.99c0,34.66-28.1,62.76-62.76,62.76h0v-111.94c0-46.84-37.97-84.81-84.81-84.81h-111.94s0,0,0,0C764.49,28.1,792.59,0,827.25,0h133.99c34.66,0,62.76,28.1,62.76,62.76Z"/>
  <path class="cls-2" d="M0,961.24v-133.99c0-34.66,28.1-62.76,62.76-62.76h0v111.94c0,46.84,37.97,84.81,84.81,84.81h111.94s0,0,0,0c0,34.66-28.1,62.76-62.76,62.76H62.76c-34.66,0-62.76-28.1-62.76-62.76Z"/>
  <rect class="cls-1" x="289.43" y="295.04" width="119.23" height="283.82" rx="42.5" ry="42.5"/>
  <rect class="cls-1" x="625.86" y="295.04" width="119.23" height="283.82" rx="42.5" ry="42.5"/>
  <path class="cls-2" d="M62.76,0h133.99c34.66,0,62.76,28.1,62.76,62.76h0s-111.94,0-111.94,0c-46.84,0-84.81,37.97-84.81,84.81v111.94s0,0,0,0c-34.66,0-62.76-28.1-62.76-62.76V62.76C0,28.1,28.1,0,62.76,0Z"/>
  <path class="cls-2" d="M961.24,1024h-133.99c-34.66,0-62.76-28.1-62.76-62.76h0s111.94,0,111.94,0c46.84,0,84.81-37.97,84.81-84.81v-111.94s0,0,0,0c34.66,0,62.76,28.1,62.76,62.76v133.99c0,34.66-28.1,62.76-62.76,62.76Z"/>
  <path class="cls-2" d="M585.03,101.42h-146.05c22.98,0,47.52-.25,73.03-.25s50.05.25,73.03.25Z"/>
</svg>
