<?xml version="1.0" encoding="UTF-8"?>
<svg id="_Слой_1" data-name="Слой 1" xmlns="http://www.w3.org/2000/svg" viewBox="0 0 3815.77 730">
  <defs>
    <style>
      .cls-1 {
        fill: #ededed;
      }
    </style>
  </defs>
  <g>
    <path class="cls-1" d="M906.5,582v-323.05h95.02l7.36,30.65c8.17-11.85,17.16-20.43,26.97-25.75,9.81-5.31,19.62-8.58,29.42-9.81,9.81-1.23,18.79-1.84,26.97-1.84,6.94,0,13.28.11,19,.31,5.72.21,9.4.52,11.03.92v104.82h-20.84c-15.12,0-29.33,1.94-42.6,5.82-13.29,3.89-23.91,11.24-31.88,22.07-7.97,10.83-11.95,27.08-11.95,48.73v147.12h-108.5Z"/>
    <path class="cls-1" d="M1301.88,586.9c-33.1,0-62.02-6.64-86.74-19.92-24.73-13.28-43.94-32.18-57.62-56.7-13.7-24.52-20.54-53.73-20.54-87.66s6.94-63.65,20.84-89.19c13.89-25.54,33.3-45.46,58.23-59.77,24.92-14.3,53.94-21.46,87.05-21.46,23.7,0,44.95,3.68,63.75,11.03,18.79,7.36,34.94,17.99,48.43,31.88,13.49,13.9,23.8,30.65,30.96,50.27,7.15,19.62,10.73,41.68,10.73,66.2,0,6.95-.31,13.59-.92,19.92-.61,6.34-1.74,12.98-3.37,19.92h-208.42c.81,7.77,3.37,15.12,7.66,22.07,4.29,6.95,10.32,12.47,18.08,16.55,7.76,4.09,17.57,6.13,29.42,6.13,9.81,0,18.28-1.12,25.44-3.37,7.15-2.24,12.97-5.21,17.47-8.89,4.49-3.68,7.36-7.36,8.58-11.03h106.05c-5.73,26.57-16.24,48.33-31.57,65.29-15.32,16.96-33.71,29.33-55.17,37.09-21.46,7.76-44.24,11.65-68.35,11.65ZM1246.1,380.94h109.11c0-6.13-1.74-12.57-5.21-19.31-3.48-6.74-9.19-12.36-17.16-16.86-7.97-4.49-18.5-6.74-31.57-6.74s-23.09,2.25-31.26,6.74c-8.18,4.5-14.2,10.11-18.08,16.86-3.89,6.74-5.82,13.18-5.82,19.31Z"/>
    <path class="cls-1" d="M1567.3,386.45c-17.16,0-32.29-5.31-45.36-15.94-13.08-10.62-19.62-26.36-19.62-47.2,0-14.3,3.27-26.36,9.81-36.17,6.53-9.81,14.81-17.37,24.83-22.68,10.01-5.31,20.54-7.97,31.57-7.97,16.75,0,31.46,5.73,44.14,17.16,12.66,11.45,19,27.8,19,49.04s-6.44,36.68-19.31,47.51c-12.87,10.83-27.89,16.24-45.06,16.24ZM1567.3,587.52c-17.16,0-32.29-5.32-45.36-15.94-13.08-10.62-19.62-26.36-19.62-47.2,0-14.3,3.27-26.36,9.81-36.17,6.53-9.81,14.81-17.37,24.83-22.68,10.01-5.31,20.54-7.97,31.57-7.97,16.75,0,31.46,5.73,44.14,17.16,12.66,11.45,19,27.8,19,49.04s-6.44,36.68-19.31,47.51c-12.87,10.82-27.89,16.24-45.06,16.24Z"/>
    <path class="cls-1" d="M1701.54,582V148h169.8c45.76,0,85.3,8.18,118.62,24.52,33.3,16.35,59.05,40.67,77.24,72.95,18.18,32.29,27.28,72.75,27.28,121.37s-8.79,87.05-26.36,118.92c-17.58,31.88-42.91,55.89-76.01,72.03-33.1,16.15-72.95,24.21-119.53,24.21h-171.03ZM1812.5,479.63h61.3c27.37,0,48.93-4.8,64.67-14.41,15.73-9.6,26.97-22.99,33.71-40.15s10.12-36.98,10.12-59.46-3.28-41.17-9.81-58.54c-6.54-17.36-17.99-31.05-34.33-41.07-16.35-10.01-39.23-15.02-68.66-15.02h-57.01v228.65Z"/>
    <path class="cls-1" d="M2298.61,586.9c-31.88,0-60.59-6.33-86.13-19-25.54-12.66-45.88-31.36-60.99-56.09-15.12-24.72-22.68-54.86-22.68-90.42s7.66-67.12,22.99-92.26c15.33-25.13,35.65-44.23,60.99-57.32,25.33-13.07,53.33-19.62,83.98-19.62s59.77,6.74,84.9,20.23c25.13,13.49,45.15,32.9,60.07,58.23,14.91,25.34,22.38,56.2,22.38,92.56s-7.16,64.98-21.46,89.5c-14.31,24.52-33.93,43.01-58.85,55.48-24.93,12.47-53.33,18.7-85.21,18.7ZM2296.77,486.37c15.53,0,27.79-3.27,36.78-9.81,8.98-6.53,15.33-14.81,19-24.83,3.68-10.01,5.52-19.92,5.52-29.73s-1.84-20.02-5.52-30.65c-3.68-10.62-9.91-19.62-18.7-26.97-8.79-7.36-21.15-11.03-37.09-11.03s-27.89,3.68-37.09,11.03c-9.2,7.36-15.63,16.25-19.31,26.67s-5.52,20.75-5.52,30.96,1.94,20.33,5.82,30.34c3.88,10.02,10.32,18.19,19.31,24.52,8.98,6.34,21.24,9.5,36.78,9.5Z"/>
    <path class="cls-1" d="M2509.48,582v-323.05h99.92l6.13,29.42c10.21-10.62,21.15-18.49,32.79-23.6,11.65-5.1,22.99-8.48,34.02-10.11,11.03-1.63,20.43-2.45,28.2-2.45,30.24,0,54.04,6.95,71.41,20.84,17.37,13.9,29.73,32.29,37.09,55.17,7.36,22.89,11.03,48.03,11.03,75.4v178.38h-108.5v-169.19c0-6.53-.72-13.38-2.15-20.54-1.44-7.15-3.89-13.79-7.36-19.92-3.48-6.13-8.28-11.13-14.41-15.02-6.13-3.88-14.1-5.82-23.91-5.82-12.67,0-23.2,2.86-31.57,8.58-8.38,5.73-14.51,13.39-18.39,22.99-3.89,9.61-5.82,20.33-5.82,32.18v166.74h-108.5Z"/>
    <path class="cls-1" d="M2987.62,586.9c-15.12,0-29.42-2.05-42.91-6.13-13.49-4.08-25.44-10.21-35.86-18.39-10.42-8.17-18.7-18.39-24.83-30.65-6.13-12.26-9.19-26.76-9.19-43.52,0-24.52,5.21-43.72,15.63-57.62,10.42-13.89,24.52-24.11,42.3-30.65,17.78-6.53,38.01-10.73,60.69-12.57,22.68-1.84,46.28-2.76,70.8-2.76h14.71c0-7.76-1.84-14.71-5.52-20.84-3.68-6.13-8.89-11.03-15.63-14.71-6.74-3.68-15.02-5.52-24.83-5.52-6.95,0-13.7,1.02-20.23,3.06-6.54,2.05-11.95,4.81-16.25,8.28-4.29,3.48-6.85,7.66-7.66,12.57h-107.89c2.45-20.02,8.37-37.29,17.78-51.8,9.4-14.5,21.25-26.36,35.55-35.55,14.3-9.2,30.34-16.03,48.12-20.54,17.78-4.49,36.26-6.74,55.48-6.74,47.4,0,83.26,13.18,107.58,39.54,24.31,26.36,36.47,65.08,36.47,116.16v173.48h-99.92v-42.3c-10.63,15.94-22.58,27.18-35.86,33.71-13.29,6.54-25.34,10.42-36.17,11.65-10.83,1.23-18.29,1.84-22.37,1.84ZM3017.04,504.15c10.21,0,20.12-2.55,29.73-7.66,9.6-5.1,17.57-11.54,23.91-19.31,6.33-7.76,9.5-15.53,9.5-23.29v-2.45h-60.69c-4.9,0-9.61.52-14.1,1.53-4.5,1.02-8.49,2.56-11.95,4.6-3.48,2.05-6.24,4.7-8.28,7.97-2.05,3.28-3.07,7.36-3.07,12.26,0,5.73,1.53,10.53,4.6,14.41,3.07,3.89,7.25,6.85,12.57,8.89,5.31,2.05,11.24,3.07,17.78,3.07Z"/>
    <path class="cls-1" d="M3378.09,586.29c-38.01,0-67.03-10.82-87.05-32.49-20.03-21.66-30.04-50.67-30.04-87.05v-110.95h-45.36v-96.85h45.36v-80.92h108.5v80.92h96.85v96.85h-96.85v85.82c0,8.99,1.53,16.66,4.6,22.99,3.07,6.34,7.76,11.14,14.1,14.41,6.33,3.28,14.2,4.9,23.6,4.9,10.21,0,18.59-1.53,25.13-4.6,6.53-3.06,11.85-6.23,15.94-9.5l29.42,85.21c-9.41,7.77-20.33,14-32.79,18.7-12.47,4.7-24.93,7.97-37.39,9.81-12.47,1.84-23.81,2.76-34.02,2.76Z"/>
    <path class="cls-1" d="M3660.68,586.9c-33.1,0-62.02-6.64-86.74-19.92-24.73-13.28-43.94-32.18-57.62-56.7-13.7-24.52-20.54-53.73-20.54-87.66s6.94-63.65,20.84-89.19c13.89-25.54,33.3-45.46,58.24-59.77,24.92-14.3,53.94-21.46,87.05-21.46,23.7,0,44.95,3.68,63.75,11.03,18.79,7.36,34.94,17.99,48.43,31.88,13.49,13.9,23.8,30.65,30.96,50.27,7.15,19.62,10.73,41.68,10.73,66.2,0,6.95-.31,13.59-.92,19.92-.61,6.34-1.74,12.98-3.37,19.92h-208.42c.81,7.77,3.37,15.12,7.66,22.07,4.29,6.95,10.32,12.47,18.08,16.55,7.76,4.09,17.57,6.13,29.42,6.13,9.81,0,18.28-1.12,25.44-3.37,7.15-2.24,12.97-5.21,17.47-8.89,4.49-3.68,7.36-7.36,8.58-11.03h106.05c-5.73,26.57-16.24,48.33-31.57,65.29-15.33,16.96-33.71,29.33-55.17,37.09-21.46,7.76-44.24,11.65-68.35,11.65ZM3604.9,380.94h109.11c0-6.13-1.74-12.57-5.21-19.31-3.48-6.74-9.2-12.36-17.16-16.86-7.97-4.49-18.5-6.74-31.57-6.74s-23.09,2.25-31.26,6.74c-8.18,4.5-14.21,10.11-18.08,16.86-3.89,6.74-5.82,13.18-5.82,19.31Z"/>
  </g>
  <path class="cls-1" d="M365,72.12c-18.18,0-35.68.18-52.06.18h104.12c-16.38,0-33.88-.18-52.06-.18Z"/>
  <path class="cls-1" d="M607.88,72.12h-242.88c18.18,0,35.68.18,52.06.18h-104.12c16.38,0,33.88-.18,52.06-.18H122.12c-27.61,0-50,22.39-50,50v485.76c0,27.61,22.39,50,50,50h485.76c27.61,0,50-22.39,50-50V122.12c0-27.61-22.39-50-50-50ZM291.33,370.17c0,23.47-19.02,42.5-42.5,42.5s-42.5-19.03-42.5-42.5v-117.34c0-23.47,19.03-42.5,42.5-42.5,11.74,0,22.37,4.76,30.05,12.45,7.7,7.69,12.45,18.32,12.45,30.05v117.34ZM531.17,370.17c0,23.47-19.03,42.5-42.5,42.5s-42.5-19.03-42.5-42.5v-117.34c0-23.47,19.02-42.5,42.5-42.5,11.73,0,22.36,4.76,30.05,12.45,7.69,7.69,12.45,18.32,12.45,30.05v117.34Z"/>
  <path class="cls-1" d="M730,44.74v95.52c0,24.71-20.03,44.74-44.74,44.74h0v-79.8c0-33.39-27.07-60.46-60.46-60.46h-79.8s0,0,0,0C545,20.03,565.03,0,589.74,0h95.52c24.71,0,44.74,20.03,44.74,44.74Z"/>
  <path class="cls-1" d="M0,685.26v-95.52c0-24.71,20.03-44.74,44.74-44.74h0v79.8c0,33.39,27.07,60.46,60.46,60.46h79.8s0,0,0,0c0,24.71-20.03,44.74-44.74,44.74H44.74c-24.71,0-44.74-20.03-44.74-44.74Z"/>
  <path class="cls-1" d="M44.74,0h95.52c24.71,0,44.74,20.03,44.74,44.74h0s-79.8,0-79.8,0c-33.39,0-60.46,27.07-60.46,60.46v79.8s0,0,0,0c-24.71,0-44.74-20.03-44.74-44.74V44.74C0,20.03,20.03,0,44.74,0Z"/>
  <path class="cls-1" d="M685.26,730h-95.52c-24.71,0-44.74-20.03-44.74-44.74h0s79.8,0,79.8,0c33.39,0,60.46-27.07,60.46-60.46v-79.8s0,0,0,0c24.71,0,44.74,20.03,44.74,44.74v95.52c0,24.71-20.03,44.74-44.74,44.74Z"/>
  <path class="cls-1" d="M417.06,72.3h-104.12c16.38,0,33.88-.18,52.06-.18s35.68.18,52.06.18Z"/>
</svg>
