<?xml version="1.0" encoding="utf-8"?>
<svg id="_Слой_1" data-name="Слой 1" xmlns="http://www.w3.org/2000/svg" viewBox="0 0 1024 1024">
  <path fill="#ffffff" d="M 151.17 101.17 L 872.83 101.17 C 900.444 101.17 922.83 123.556 922.83 151.17 L 922.83 872.83 C 922.83 900.444 900.444 922.83 872.83 922.83 L 151.17 922.83 C 123.556 922.83 101.17 900.444 101.17 872.83 L 101.17 151.17 C 101.17 123.556 123.556 101.17 151.17 101.17 Z M 289.43 337.54 L 289.43 536.36 C 289.43 559.832 308.458 578.86 331.93 578.86 L 366.16 578.86 C 389.632 578.86 408.66 559.832 408.66 536.36 L 408.66 337.54 C 408.66 314.068 389.632 295.04 366.16 295.04 L 331.93 295.04 C 308.458 295.04 289.43 314.068 289.43 337.54 Z M 625.86 337.54 L 625.86 536.36 C 625.86 559.832 644.888 578.86 668.36 578.86 L 702.59 578.86 C 726.062 578.86 745.09 559.832 745.09 536.36 L 745.09 337.54 C 745.09 314.068 726.062 295.04 702.59 295.04 L 668.36 295.04 C 644.888 295.04 625.86 314.068 625.86 337.54 Z"/>
  <path fill="#ffffff" d="M1024,62.76v133.99c0,34.66-28.1,62.76-62.76,62.76h0v-111.94c0-46.84-37.97-84.81-84.81-84.81h-111.94s0,0,0,0C764.49,28.1,792.59,0,827.25,0h133.99c34.66,0,62.76,28.1,62.76,62.76Z"/>
  <path fill="#ffffff" d="M0,961.24v-133.99c0-34.66,28.1-62.76,62.76-62.76h0v111.94c0,46.84,37.97,84.81,84.81,84.81h111.94s0,0,0,0c0,34.66-28.1,62.76-62.76,62.76H62.76c-34.66,0-62.76-28.1-62.76-62.76Z"/>
  <path fill="#ffffff" d="M62.76,0h133.99c34.66,0,62.76,28.1,62.76,62.76h0s-111.94,0-111.94,0c-46.84,0-84.81,37.97-84.81,84.81v111.94s0,0,0,0c-34.66,0-62.76-28.1-62.76-62.76V62.76C0,28.1,28.1,0,62.76,0Z"/>
  <path fill="#ffffff" d="M961.24,1024h-133.99c-34.66,0-62.76-28.1-62.76-62.76h0s111.94,0,111.94,0c46.84,0,84.81-37.97,84.81-84.81v-111.94s0,0,0,0c34.66,0,62.76,28.1,62.76,62.76v133.99c0,34.66-28.1,62.76-62.76,62.76Z"/>
</svg>
