<?xml version="1.0" encoding="UTF-8"?>
<svg id="_Слой_1" data-name="Слой 1" xmlns="http://www.w3.org/2000/svg" viewBox="0 0 3835 778.1">
  <defs>
    <style>
      .cls-1 {
        letter-spacing: 0em;
      }

      .cls-2 {
        fill: #fff;
      }

      .cls-3 {
        font-family: Onest-Black, Onest;
        font-size: 613px;
        font-variation-settings: 'wght' 900;
        font-weight: 800;
      }

      .cls-3, .cls-4 {
        fill: #ededed;
      }
    </style>
  </defs>
  <text class="cls-3" transform="translate(877.69 585)"><tspan class="cls-1" x="0" y="0">r</tspan><tspan x="242.75" y="0">e:Donate</tspan></text>
  <path class="cls-4" d="M365,75.12c-18.18,0-35.68.18-52.06.18h104.12c-16.38,0-33.88-.18-52.06-.18Z"/>
  <path class="cls-4" d="M607.88,75.12h-242.88c18.18,0,35.68.18,52.06.18h-104.12c16.38,0,33.88-.18,52.06-.18H122.12c-27.61,0-50,22.39-50,50v485.76c0,27.61,22.39,50,50,50h485.76c27.61,0,50-22.39,50-50V125.12c0-27.61-22.39-50-50-50ZM291.33,373.17c0,23.47-19.02,42.5-42.5,42.5s-42.5-19.03-42.5-42.5v-117.34c0-23.47,19.03-42.5,42.5-42.5,11.74,0,22.37,4.76,30.05,12.45,7.7,7.69,12.45,18.32,12.45,30.05v117.34ZM531.17,373.17c0,23.47-19.03,42.5-42.5,42.5s-42.5-19.03-42.5-42.5v-117.34c0-23.47,19.02-42.5,42.5-42.5,11.73,0,22.36,4.76,30.05,12.45,7.69,7.69,12.45,18.32,12.45,30.05v117.34Z"/>
  <path class="cls-4" d="M730,47.74v95.52c0,24.71-20.03,44.74-44.74,44.74h0v-79.8c0-33.39-27.07-60.46-60.46-60.46h-79.8s0,0,0,0c0-24.71,20.03-44.74,44.74-44.74h95.52c24.71,0,44.74,20.03,44.74,44.74Z"/>
  <path class="cls-4" d="M0,688.26v-95.52c0-24.71,20.03-44.74,44.74-44.74h0v79.8c0,33.39,27.07,60.46,60.46,60.46h79.8s0,0,0,0c0,24.71-20.03,44.74-44.74,44.74H44.74c-24.71,0-44.74-20.03-44.74-44.74Z"/>
  <path class="cls-2" d="M531.17,255.83v117.34c0,23.47-19.03,42.5-42.5,42.5s-42.5-19.03-42.5-42.5v-117.34c0-23.47,19.02-42.5,42.5-42.5,11.73,0,22.36,4.76,30.05,12.45,7.69,7.69,12.45,18.32,12.45,30.05Z"/>
  <path class="cls-4" d="M44.74,3h95.52c24.71,0,44.74,20.03,44.74,44.74h0s-79.8,0-79.8,0c-33.39,0-60.46,27.07-60.46,60.46v79.8s0,0,0,0c-24.71,0-44.74-20.03-44.74-44.74V47.74c0-24.71,20.03-44.74,44.74-44.74Z"/>
  <path class="cls-4" d="M685.26,733h-95.52c-24.71,0-44.74-20.03-44.74-44.74h0s79.8,0,79.8,0c33.39,0,60.46-27.07,60.46-60.46v-79.8s0,0,0,0c24.71,0,44.74,20.03,44.74,44.74v95.52c0,24.71-20.03,44.74-44.74,44.74Z"/>
  <path class="cls-4" d="M417.06,75.3h-104.12c16.38,0,33.88-.18,52.06-.18s35.68.18,52.06.18Z"/>
</svg>
